# xmcd
# Copyright (C) 1995-1998 Ti Kan
#
# Track frame offsets:
#       150
#       12437
#       27472
#       40919
#       55626
#       75774
#       91929
#       104267
#       121165
#       132150
#       150137
#       162202
#       177172
#       187672
#       207232
#       220852
#       234552
#       248035
#       260895
#       273365
#
# Disc length: 3938 seconds
#
# Revision: 0
# Processed by: cddbd v1.5.2PL0 Copyright (c) Steve Scherf et al.
# Submitted via: CD-Import v1.0
#
DISCID=f70f6014
DTITLE=Chet Baker - Chet Baker Compliation
DYEAR=1900
DGENRE=
TTITLE0=Daybrake
TTITLE1=I Fall In Love To Easily
TTITLE2=I Get Allong Without You Very Well
TTITLE3=I Remember You
TTITLE4=I've Never Been In Love Before
TTITLE5=It's Alwaws You
TTITLE6=Just Friends
TTITLE7=Let's Get Lost
TTITLE8=Like Someone In Love
TTITLE9=Long Ago And Far Away
TTITLE10=Look For The Silver Lining
TTITLE11=My Buddy
TTITLE12=My Funny Valentine
TTITLE13=My Ideal
TTITLE14=Someone To Watch Over Me
TTITLE15=That Old Feeling
TTITLE16=There Will Never Be Another You
TTITLE17=The Thrill Is Gone
TTITLE18=Time After Time
TTITLE19=You Don't Know What Love Is
EXTD=
EXTT0=
EXTT1=
EXTT2=
EXTT3=
EXTT4=
EXTT5=
EXTT6=
EXTT7=
EXTT8=
EXTT9=
EXTT10=
EXTT11=
EXTT12=
EXTT13=
EXTT14=
EXTT15=
EXTT16=
EXTT17=
EXTT18=
EXTT19=
PLAYORDER=
